<svg width="48" height="48" viewBox="0 0 48 48" fill="none" xmlns="http://www.w3.org/2000/svg">
    <path d="M 9,6 C 7.338,6 6,7.338 6,9 v 10 c 0,1.662 1.338,3 3,3 h 10 c 1.662,0 3,-1.338 3,-3 V 9 C 22,7.338 20.662,6 19,6 Z m 20,0 c -1.662,0 -3,1.338 -3,3 v 10 c 0,1.662 1.338,3 3,3 h 10 c 1.662,0 3,-1.338 3,-3 V 9 C 42,7.338 40.662,6 39,6 Z M 9,26 c -1.662,0 -3,1.338 -3,3 v 10 c 0,1.662 1.338,3 3,3 h 10 c 1.662,0 3,-1.338 3,-3 V 29 c 0,-1.662 -1.338,-3 -3,-3 z m 20,0 c -1.662,0 -3,1.338 -3,3 v 10 c 0,1.662 1.338,3 3,3 h 10 c 1.662,0 3,-1.338 3,-3 V 29 c 0,-1.662 -1.338,-3 -3,-3 z" fill="#06113C"/>
</svg>


