<svg width="48" height="54" viewBox="0 0 48 54" fill="none" xmlns="http://www.w3.org/2000/svg">
    <path d="M24 8C24 6.89543 24.897 5.99134 25.9978 6.08328C30.0401 6.42091 33.9428 7.77902 37.3337 10.0447C41.2805 12.6819 44.3566 16.4302 46.1731 20.8156C47.9896 25.201 48.4649 30.0266 47.5388 34.6822C46.6128 39.3377 44.327 43.6141 40.9706 46.9706C37.6141 50.327 33.3377 52.6128 28.6822 53.5388C24.0266 54.4649 19.201 53.9896 14.8156 52.1731C10.4302 50.3566 6.68188 47.2805 4.04473 43.3337C1.77902 39.9428 0.42091 36.0401 0.0832773 31.9978C-0.00866024 30.897 0.895431 30 2 30L7.6 30C8.70457 30 9.58574 30.8997 9.73866 31.9936C10.0379 34.1342 10.8166 36.1889 12.0268 38.0002C13.6091 40.3683 15.8581 42.214 18.4894 43.3039C21.1206 44.3938 24.016 44.6789 26.8093 44.1233C29.6026 43.5677 32.1685 42.1962 34.1823 40.1823C36.1962 38.1685 37.5677 35.6026 38.1233 32.8093C38.6789 30.016 38.3938 27.1206 37.3039 24.4894C36.214 21.8581 34.3683 19.6091 32.0002 18.0268C30.1889 16.8166 28.1342 16.0379 25.9936 15.7387C24.8997 15.5857 24 14.7046 24 13.6L24 8Z" fill="#06113C"/>
    <path d="M8.5 13.5885C6.5 12.4338 6.5 9.54701 8.5 8.3923L22 0.598075C24 -0.556626 26.5 0.886752 26.5 3.19615V18.7846C26.5 21.094 24 22.5374 22 21.3827L8.5 13.5885Z" fill="#06113C"/>
</svg>


